<mxfile host="Electron" agent="Mozilla/5.0 (X11; Linux x86_64) AppleWebKit/537.36 (KHTML, like Gecko) draw.io/28.0.6 Chrome/138.0.7204.100 Electron/37.2.3 Safari/537.36" version="28.0.6">
  <diagram name="Page-1" id="qw05_2UKTyQj2lxW9M3L">
    <mxGraphModel dx="1532" dy="1142" grid="1" gridSize="10" guides="1" tooltips="1" connect="1" arrows="1" fold="1" page="1" pageScale="1" pageWidth="827" pageHeight="1169" math="0" shadow="0">
      <root>
        <mxCell id="0" />
        <mxCell id="1" parent="0" />
        <mxCell id="0ZT-rWJsJx0gG27IaFTa-3" value="" style="rounded=0;whiteSpace=wrap;html=1;strokeColor=none;movable=0;resizable=0;rotatable=0;deletable=0;editable=0;locked=1;connectable=0;" vertex="1" parent="1">
          <mxGeometry width="820" height="1160" as="geometry" />
        </mxCell>
        <mxCell id="RRddbuZ1UMrs-aTlMUog-97" value="" style="rounded=0;whiteSpace=wrap;html=1;fillColor=none;strokeColor=#B3B3B3;shadow=1;" parent="1" vertex="1">
          <mxGeometry x="40" y="780" width="760" height="320" as="geometry" />
        </mxCell>
        <mxCell id="RRddbuZ1UMrs-aTlMUog-96" value="" style="rounded=0;whiteSpace=wrap;html=1;fillColor=none;strokeColor=#B3B3B3;shadow=1;" parent="1" vertex="1">
          <mxGeometry x="40" y="210" width="760" height="140" as="geometry" />
        </mxCell>
        <mxCell id="RRddbuZ1UMrs-aTlMUog-95" value="" style="rounded=0;whiteSpace=wrap;html=1;fillColor=none;strokeColor=#B3B3B3;glass=0;shadow=1;" parent="1" vertex="1">
          <mxGeometry x="40" y="380" width="760" height="380" as="geometry" />
        </mxCell>
        <mxCell id="RRddbuZ1UMrs-aTlMUog-9" value=":&lt;b style=&quot;background-color: initial;&quot;&gt;Peridot Virtio&lt;/b&gt;&lt;p style=&quot;margin: 6px 0px 0px; line-height: 60%;&quot;&gt;&lt;b&gt;Console&amp;nbsp;&lt;/b&gt;&lt;b style=&quot;background-color: initial;&quot;&gt;Stub Device&lt;/b&gt;&lt;/p&gt;" style="shape=umlLifeline;perimeter=lifelinePerimeter;whiteSpace=wrap;html=1;container=1;dropTarget=0;collapsible=0;recursiveResize=0;outlineConnect=0;portConstraint=eastwest;newEdgeStyle={&quot;curved&quot;:0,&quot;rounded&quot;:0};fillColor=#CFE4FF;" parent="1" vertex="1">
          <mxGeometry x="160" y="120" width="160" height="1000" as="geometry" />
        </mxCell>
        <mxCell id="RRddbuZ1UMrs-aTlMUog-30" value="" style="html=1;points=[[0,0,0,0,5],[0,1,0,0,-5],[1,0,0,0,5],[1,1,0,0,-5]];perimeter=orthogonalPerimeter;outlineConnect=0;targetShapes=umlLifeline;portConstraint=eastwest;newEdgeStyle={&quot;curved&quot;:0,&quot;rounded&quot;:0};fillColor=#CFE4FF;" parent="RRddbuZ1UMrs-aTlMUog-9" vertex="1">
          <mxGeometry x="70" y="280" width="10" height="40" as="geometry" />
        </mxCell>
        <mxCell id="RRddbuZ1UMrs-aTlMUog-48" value="" style="html=1;points=[[0,0,0,0,5],[0,1,0,0,-5],[1,0,0,0,5],[1,1,0,0,-5]];perimeter=orthogonalPerimeter;outlineConnect=0;targetShapes=umlLifeline;portConstraint=eastwest;newEdgeStyle={&quot;curved&quot;:0,&quot;rounded&quot;:0};fillColor=#CFE4FF;" parent="RRddbuZ1UMrs-aTlMUog-9" vertex="1">
          <mxGeometry x="70" y="400" width="10" height="40" as="geometry" />
        </mxCell>
        <mxCell id="RRddbuZ1UMrs-aTlMUog-86" value="" style="html=1;points=[[0,0,0,0,5],[0,1,0,0,-5],[1,0,0,0,5],[1,1,0,0,-5]];perimeter=orthogonalPerimeter;outlineConnect=0;targetShapes=umlLifeline;portConstraint=eastwest;newEdgeStyle={&quot;curved&quot;:0,&quot;rounded&quot;:0};fillColor=#CFE4FF;" parent="RRddbuZ1UMrs-aTlMUog-9" vertex="1">
          <mxGeometry x="70" y="780" width="10" height="40" as="geometry" />
        </mxCell>
        <mxCell id="RRddbuZ1UMrs-aTlMUog-89" value="" style="html=1;points=[[0,0,0,0,5],[0,1,0,0,-5],[1,0,0,0,5],[1,1,0,0,-5]];perimeter=orthogonalPerimeter;outlineConnect=0;targetShapes=umlLifeline;portConstraint=eastwest;newEdgeStyle={&quot;curved&quot;:0,&quot;rounded&quot;:0};fillColor=#CFE4FF;" parent="RRddbuZ1UMrs-aTlMUog-9" vertex="1">
          <mxGeometry x="70" y="880" width="10" height="40" as="geometry" />
        </mxCell>
        <mxCell id="RRddbuZ1UMrs-aTlMUog-11" value=":&lt;b style=&quot;background-color: initial;&quot;&gt;Virtio Console&lt;/b&gt;&lt;p style=&quot;margin: 6px 0px 0px; line-height: 60%;&quot;&gt;&lt;b style=&quot;background-color: initial;&quot;&gt;Driver&lt;/b&gt;&lt;/p&gt;" style="shape=umlLifeline;perimeter=lifelinePerimeter;whiteSpace=wrap;html=1;container=1;dropTarget=0;collapsible=0;recursiveResize=0;outlineConnect=0;portConstraint=eastwest;newEdgeStyle={&quot;curved&quot;:0,&quot;rounded&quot;:0};fillColor=#FCF0FF;" parent="1" vertex="1">
          <mxGeometry x="480" y="120" width="120" height="1000" as="geometry" />
        </mxCell>
        <mxCell id="RRddbuZ1UMrs-aTlMUog-19" value="" style="html=1;points=[[0,0,0,0,5],[0,1,0,0,-5],[1,0,0,0,5],[1,1,0,0,-5]];perimeter=orthogonalPerimeter;outlineConnect=0;targetShapes=umlLifeline;portConstraint=eastwest;newEdgeStyle={&quot;curved&quot;:0,&quot;rounded&quot;:0};fillColor=#FCF0FF;" parent="RRddbuZ1UMrs-aTlMUog-11" vertex="1">
          <mxGeometry x="60" y="120" width="10" height="80" as="geometry" />
        </mxCell>
        <mxCell id="RRddbuZ1UMrs-aTlMUog-67" value="" style="html=1;points=[[0,0,0,0,5],[0,1,0,0,-5],[1,0,0,0,5],[1,1,0,0,-5]];perimeter=orthogonalPerimeter;outlineConnect=0;targetShapes=umlLifeline;portConstraint=eastwest;newEdgeStyle={&quot;curved&quot;:0,&quot;rounded&quot;:0};fillColor=#FCF0FF;" parent="RRddbuZ1UMrs-aTlMUog-11" vertex="1">
          <mxGeometry x="60" y="280" width="10" height="160" as="geometry" />
        </mxCell>
        <mxCell id="RRddbuZ1UMrs-aTlMUog-68" value="" style="html=1;points=[[0,0,0,0,5],[0,1,0,0,-5],[1,0,0,0,5],[1,1,0,0,-5]];perimeter=orthogonalPerimeter;outlineConnect=0;targetShapes=umlLifeline;portConstraint=eastwest;newEdgeStyle={&quot;curved&quot;:0,&quot;rounded&quot;:0};fillColor=#FCF0FF;" parent="RRddbuZ1UMrs-aTlMUog-11" vertex="1">
          <mxGeometry x="60" y="520" width="10" height="100" as="geometry" />
        </mxCell>
        <mxCell id="RRddbuZ1UMrs-aTlMUog-77" value="" style="html=1;points=[[0,0,0,0,5],[0,1,0,0,-5],[1,0,0,0,5],[1,1,0,0,-5]];perimeter=orthogonalPerimeter;outlineConnect=0;targetShapes=umlLifeline;portConstraint=eastwest;newEdgeStyle={&quot;curved&quot;:0,&quot;rounded&quot;:0};fillColor=#FCF0FF;" parent="RRddbuZ1UMrs-aTlMUog-11" vertex="1">
          <mxGeometry x="60" y="780" width="10" height="100" as="geometry" />
        </mxCell>
        <mxCell id="RRddbuZ1UMrs-aTlMUog-78" value="&lt;font style=&quot;font-size: 10px;&quot;&gt;Sends TX buffer element 0&lt;/font&gt;" style="html=1;verticalAlign=bottom;endArrow=block;curved=0;rounded=0;" parent="RRddbuZ1UMrs-aTlMUog-11" edge="1">
          <mxGeometry width="80" relative="1" as="geometry">
            <mxPoint x="60" y="780" as="sourcePoint" />
            <mxPoint x="-240" y="780" as="targetPoint" />
          </mxGeometry>
        </mxCell>
        <mxCell id="RRddbuZ1UMrs-aTlMUog-79" value="&lt;font style=&quot;font-size: 10px;&quot;&gt;Sends TX buffer element L - 1&lt;/font&gt;" style="html=1;verticalAlign=bottom;endArrow=block;curved=0;rounded=0;" parent="RRddbuZ1UMrs-aTlMUog-11" edge="1">
          <mxGeometry width="80" relative="1" as="geometry">
            <mxPoint x="60" y="880" as="sourcePoint" />
            <mxPoint x="-240" y="880" as="targetPoint" />
          </mxGeometry>
        </mxCell>
        <mxCell id="RRddbuZ1UMrs-aTlMUog-80" value="" style="endArrow=none;dashed=1;html=1;dashPattern=1 3;strokeWidth=2;rounded=0;" parent="RRddbuZ1UMrs-aTlMUog-11" edge="1">
          <mxGeometry width="50" height="50" relative="1" as="geometry">
            <mxPoint x="-90" y="850" as="sourcePoint" />
            <mxPoint x="-90" y="810" as="targetPoint" />
          </mxGeometry>
        </mxCell>
        <mxCell id="RRddbuZ1UMrs-aTlMUog-12" value="&lt;font style=&quot;font-size: 10px;&quot;&gt;Request the Device info&lt;/font&gt;" style="html=1;verticalAlign=bottom;endArrow=block;curved=0;rounded=0;" parent="1" target="RRddbuZ1UMrs-aTlMUog-9" edge="1">
          <mxGeometry width="80" relative="1" as="geometry">
            <mxPoint x="540" y="240" as="sourcePoint" />
            <mxPoint x="339.7592592592591" y="240" as="targetPoint" />
          </mxGeometry>
        </mxCell>
        <mxCell id="RRddbuZ1UMrs-aTlMUog-21" value="&lt;font style=&quot;font-size: 10px;&quot;&gt;Device info&lt;/font&gt;" style="html=1;verticalAlign=bottom;endArrow=open;dashed=1;endSize=8;curved=0;rounded=0;" parent="1" edge="1">
          <mxGeometry relative="1" as="geometry">
            <mxPoint x="240" y="260" as="sourcePoint" />
            <mxPoint x="539.5" y="260" as="targetPoint" />
          </mxGeometry>
        </mxCell>
        <mxCell id="RRddbuZ1UMrs-aTlMUog-26" value="&lt;font style=&quot;font-size: 10px;&quot;&gt;Reset done&lt;/font&gt;" style="html=1;verticalAlign=bottom;endArrow=open;dashed=1;endSize=8;curved=0;rounded=0;" parent="1" edge="1">
          <mxGeometry relative="1" as="geometry">
            <mxPoint x="240" y="320" as="sourcePoint" />
            <mxPoint x="539.5" y="320" as="targetPoint" />
          </mxGeometry>
        </mxCell>
        <mxCell id="RRddbuZ1UMrs-aTlMUog-31" value="&lt;font style=&quot;font-size: 10px;&quot;&gt;Fills in the buffer element 0 and notifies Driver&lt;/font&gt;" style="html=1;verticalAlign=bottom;endArrow=open;dashed=1;endSize=8;curved=0;rounded=0;" parent="1" edge="1">
          <mxGeometry relative="1" as="geometry">
            <mxPoint x="240" y="420" as="sourcePoint" />
            <mxPoint x="539.5" y="420" as="targetPoint" />
          </mxGeometry>
        </mxCell>
        <mxCell id="RRddbuZ1UMrs-aTlMUog-35" value="&lt;font style=&quot;font-size: 10px;&quot;&gt;Confirms the retrieval of the buffer element 0&lt;/font&gt;" style="html=1;verticalAlign=bottom;endArrow=block;curved=0;rounded=0;" parent="1" edge="1">
          <mxGeometry width="80" relative="1" as="geometry">
            <mxPoint x="540" y="440" as="sourcePoint" />
            <mxPoint x="240" y="440" as="targetPoint" />
          </mxGeometry>
        </mxCell>
        <mxCell id="RRddbuZ1UMrs-aTlMUog-37" value="&lt;font style=&quot;font-size: 10px;&quot;&gt;Reset Device&lt;/font&gt;" style="html=1;verticalAlign=bottom;endArrow=block;curved=0;rounded=0;" parent="1" edge="1">
          <mxGeometry width="80" relative="1" as="geometry">
            <mxPoint x="540" y="300" as="sourcePoint" />
            <mxPoint x="240" y="300" as="targetPoint" />
          </mxGeometry>
        </mxCell>
        <mxCell id="RRddbuZ1UMrs-aTlMUog-38" value="&lt;font style=&quot;font-size: 10px;&quot;&gt;Sends RX buffer element 0&lt;/font&gt;" style="html=1;verticalAlign=bottom;endArrow=block;curved=0;rounded=0;" parent="1" target="RRddbuZ1UMrs-aTlMUog-9" edge="1">
          <mxGeometry width="80" relative="1" as="geometry">
            <mxPoint x="540" y="400" as="sourcePoint" />
            <mxPoint x="620" y="400" as="targetPoint" />
          </mxGeometry>
        </mxCell>
        <mxCell id="RRddbuZ1UMrs-aTlMUog-39" value="&lt;span style=&quot;font-size: 10px;&quot;&gt;Fills in the buffer element 0 and notifies Driver&lt;/span&gt;" style="html=1;verticalAlign=bottom;endArrow=open;dashed=1;endSize=8;curved=0;rounded=0;" parent="1" edge="1">
          <mxGeometry relative="1" as="geometry">
            <mxPoint x="240" y="540" as="sourcePoint" />
            <mxPoint x="539.5" y="540" as="targetPoint" />
          </mxGeometry>
        </mxCell>
        <mxCell id="RRddbuZ1UMrs-aTlMUog-40" value="&lt;span style=&quot;font-size: 10px;&quot;&gt;Confirms the retrieval of the buffer element 0&lt;/span&gt;" style="html=1;verticalAlign=bottom;endArrow=block;curved=0;rounded=0;" parent="1" edge="1">
          <mxGeometry width="80" relative="1" as="geometry">
            <mxPoint x="540" y="560" as="sourcePoint" />
            <mxPoint x="240" y="560" as="targetPoint" />
          </mxGeometry>
        </mxCell>
        <mxCell id="RRddbuZ1UMrs-aTlMUog-41" value="&lt;font style=&quot;font-size: 10px;&quot;&gt;Sends RX buffer element 0&lt;/font&gt;" style="html=1;verticalAlign=bottom;endArrow=block;curved=0;rounded=0;" parent="1" edge="1">
          <mxGeometry width="80" relative="1" as="geometry">
            <mxPoint x="540" y="520" as="sourcePoint" />
            <mxPoint x="240" y="520" as="targetPoint" />
          </mxGeometry>
        </mxCell>
        <mxCell id="RRddbuZ1UMrs-aTlMUog-44" value="&lt;font style=&quot;font-size: 10px;&quot;&gt;Sends RX buffer element 0&lt;/font&gt;" style="html=1;verticalAlign=bottom;endArrow=block;curved=0;rounded=0;" parent="1" edge="1">
          <mxGeometry width="80" relative="1" as="geometry">
            <mxPoint x="540" y="640" as="sourcePoint" />
            <mxPoint x="240" y="640" as="targetPoint" />
          </mxGeometry>
        </mxCell>
        <mxCell id="RRddbuZ1UMrs-aTlMUog-47" value="&lt;font style=&quot;font-size: 10px;&quot;&gt;Sends RX buffer element N - 1&lt;/font&gt;" style="html=1;verticalAlign=bottom;endArrow=block;curved=0;rounded=0;" parent="1" edge="1">
          <mxGeometry width="80" relative="1" as="geometry">
            <mxPoint x="540" y="740" as="sourcePoint" />
            <mxPoint x="240" y="740" as="targetPoint" />
          </mxGeometry>
        </mxCell>
        <mxCell id="RRddbuZ1UMrs-aTlMUog-49" value="" style="endArrow=none;dashed=1;html=1;dashPattern=1 3;strokeWidth=2;rounded=0;" parent="1" edge="1">
          <mxGeometry width="50" height="50" relative="1" as="geometry">
            <mxPoint x="390" y="490" as="sourcePoint" />
            <mxPoint x="390" y="450" as="targetPoint" />
          </mxGeometry>
        </mxCell>
        <mxCell id="RRddbuZ1UMrs-aTlMUog-50" value="" style="endArrow=none;dashed=1;html=1;dashPattern=1 3;strokeWidth=2;rounded=0;" parent="1" edge="1">
          <mxGeometry width="50" height="50" relative="1" as="geometry">
            <mxPoint x="390" y="710" as="sourcePoint" />
            <mxPoint x="390" y="670" as="targetPoint" />
          </mxGeometry>
        </mxCell>
        <mxCell id="RRddbuZ1UMrs-aTlMUog-53" value="" style="shape=note2;boundedLbl=1;whiteSpace=wrap;html=1;size=25;verticalAlign=top;align=center;" parent="1" vertex="1">
          <mxGeometry x="590" y="240" width="160" height="30" as="geometry" />
        </mxCell>
        <mxCell id="RRddbuZ1UMrs-aTlMUog-54" value="Virtio Device discovery" style="resizeWidth=1;part=1;strokeColor=none;fillColor=none;align=left;spacingLeft=5;fontSize=11;" parent="RRddbuZ1UMrs-aTlMUog-53" vertex="1">
          <mxGeometry width="160" height="25" relative="1" as="geometry" />
        </mxCell>
        <mxCell id="RRddbuZ1UMrs-aTlMUog-55" value="" style="shape=note2;boundedLbl=1;whiteSpace=wrap;html=1;size=25;verticalAlign=top;align=center;" parent="1" vertex="1">
          <mxGeometry x="80" y="400" width="120" height="40" as="geometry" />
        </mxCell>
        <mxCell id="RRddbuZ1UMrs-aTlMUog-56" value="&#xa;Sends&#xa;Payload Data 0" style="resizeWidth=1;part=1;strokeColor=none;fillColor=none;align=left;spacingLeft=5;fontSize=11;" parent="RRddbuZ1UMrs-aTlMUog-55" vertex="1">
          <mxGeometry width="120" height="25" relative="1" as="geometry" />
        </mxCell>
        <mxCell id="RRddbuZ1UMrs-aTlMUog-59" value="" style="shape=note2;boundedLbl=1;whiteSpace=wrap;html=1;size=25;verticalAlign=top;align=center;" parent="1" vertex="1">
          <mxGeometry x="590" y="640" width="160" height="40" as="geometry" />
        </mxCell>
        <mxCell id="RRddbuZ1UMrs-aTlMUog-60" value="&#xa;Maintains RX virtqueue&#xa;of size N complete" style="resizeWidth=1;part=1;strokeColor=none;fillColor=none;align=left;spacingLeft=5;fontSize=11;" parent="RRddbuZ1UMrs-aTlMUog-59" vertex="1">
          <mxGeometry width="160" height="25" relative="1" as="geometry" />
        </mxCell>
        <mxCell id="RRddbuZ1UMrs-aTlMUog-63" value="&lt;font style=&quot;font-size: 10px;&quot;&gt;Sends RX buffer element 1&lt;/font&gt;" style="html=1;verticalAlign=bottom;endArrow=block;curved=0;rounded=0;" parent="1" edge="1">
          <mxGeometry width="80" relative="1" as="geometry">
            <mxPoint x="540" y="660" as="sourcePoint" />
            <mxPoint x="240" y="660" as="targetPoint" />
          </mxGeometry>
        </mxCell>
        <mxCell id="RRddbuZ1UMrs-aTlMUog-64" value="" style="shape=note2;boundedLbl=1;whiteSpace=wrap;html=1;size=25;verticalAlign=top;align=center;" parent="1" vertex="1">
          <mxGeometry x="590" y="400" width="160" height="70" as="geometry" />
        </mxCell>
        <mxCell id="RRddbuZ1UMrs-aTlMUog-65" value="&#xa;Buffer element 0 sent&#xa;and returned M times&#xa;to deliver M pieces of payload&#xa;content" style="resizeWidth=1;part=1;strokeColor=none;fillColor=none;align=left;spacingLeft=5;fontSize=11;" parent="RRddbuZ1UMrs-aTlMUog-64" vertex="1">
          <mxGeometry width="160" height="50" relative="1" as="geometry" />
        </mxCell>
        <mxCell id="RRddbuZ1UMrs-aTlMUog-69" value="" style="endArrow=none;dashed=1;html=1;rounded=0;" parent="1" target="RRddbuZ1UMrs-aTlMUog-19" edge="1">
          <mxGeometry width="50" height="50" relative="1" as="geometry">
            <mxPoint x="590" y="240" as="sourcePoint" />
            <mxPoint x="640" y="190" as="targetPoint" />
          </mxGeometry>
        </mxCell>
        <mxCell id="RRddbuZ1UMrs-aTlMUog-70" value="" style="endArrow=none;dashed=1;html=1;rounded=0;" parent="1" target="RRddbuZ1UMrs-aTlMUog-67" edge="1">
          <mxGeometry width="50" height="50" relative="1" as="geometry">
            <mxPoint x="590" y="400" as="sourcePoint" />
            <mxPoint x="640" y="350" as="targetPoint" />
          </mxGeometry>
        </mxCell>
        <mxCell id="RRddbuZ1UMrs-aTlMUog-71" value="" style="endArrow=none;dashed=1;html=1;rounded=0;" parent="1" target="RRddbuZ1UMrs-aTlMUog-68" edge="1">
          <mxGeometry width="50" height="50" relative="1" as="geometry">
            <mxPoint x="590" y="640" as="sourcePoint" />
            <mxPoint x="640" y="590" as="targetPoint" />
          </mxGeometry>
        </mxCell>
        <mxCell id="RRddbuZ1UMrs-aTlMUog-72" value="" style="endArrow=none;dashed=1;html=1;rounded=0;entryX=0.829;entryY=0;entryDx=0;entryDy=0;entryPerimeter=0;" parent="1" source="RRddbuZ1UMrs-aTlMUog-48" target="RRddbuZ1UMrs-aTlMUog-75" edge="1">
          <mxGeometry width="50" height="50" relative="1" as="geometry">
            <mxPoint x="215.06" y="480" as="sourcePoint" />
            <mxPoint x="160.00000000000006" y="480" as="targetPoint" />
          </mxGeometry>
        </mxCell>
        <mxCell id="RRddbuZ1UMrs-aTlMUog-73" value="" style="endArrow=none;dashed=1;html=1;rounded=0;entryX=0.75;entryY=0;entryDx=0;entryDy=0;" parent="1" source="RRddbuZ1UMrs-aTlMUog-30" target="RRddbuZ1UMrs-aTlMUog-56" edge="1">
          <mxGeometry width="50" height="50" relative="1" as="geometry">
            <mxPoint x="130" y="330" as="sourcePoint" />
            <mxPoint x="180" y="280" as="targetPoint" />
          </mxGeometry>
        </mxCell>
        <mxCell id="RRddbuZ1UMrs-aTlMUog-74" value="" style="shape=note2;boundedLbl=1;whiteSpace=wrap;html=1;size=25;verticalAlign=top;align=center;" parent="1" vertex="1">
          <mxGeometry x="80" y="520" width="140" height="40" as="geometry" />
        </mxCell>
        <mxCell id="RRddbuZ1UMrs-aTlMUog-75" value="&#xa;Sends&#xa;Payload Data M - 1" style="resizeWidth=1;part=1;strokeColor=none;fillColor=none;align=left;spacingLeft=5;fontSize=11;" parent="RRddbuZ1UMrs-aTlMUog-74" vertex="1">
          <mxGeometry width="140" height="25" relative="1" as="geometry" />
        </mxCell>
        <mxCell id="RRddbuZ1UMrs-aTlMUog-76" value=":&lt;b style=&quot;background-color: initial;&quot;&gt;User Space&lt;/b&gt;&lt;p style=&quot;margin: 6px 0px 0px; line-height: 60%;&quot;&gt;&lt;b style=&quot;background-color: initial;&quot;&gt;App&lt;/b&gt;&lt;/p&gt;" style="shape=umlLifeline;perimeter=lifelinePerimeter;whiteSpace=wrap;html=1;container=1;dropTarget=0;collapsible=0;recursiveResize=0;outlineConnect=0;portConstraint=eastwest;newEdgeStyle={&quot;curved&quot;:0,&quot;rounded&quot;:0};" parent="1" vertex="1">
          <mxGeometry x="600" y="800" width="100" height="320" as="geometry" />
        </mxCell>
        <mxCell id="RRddbuZ1UMrs-aTlMUog-85" value="&lt;font style=&quot;font-size: 10px;&quot;&gt;Writes test text to&lt;/font&gt;&lt;div&gt;&lt;font style=&quot;font-size: 10px;&quot;&gt;/dev/hvc0&lt;/font&gt;&lt;/div&gt;" style="html=1;verticalAlign=bottom;endArrow=block;curved=0;rounded=0;" parent="1" edge="1">
          <mxGeometry width="80" relative="1" as="geometry">
            <mxPoint x="650" y="900" as="sourcePoint" />
            <mxPoint x="540" y="900" as="targetPoint" />
          </mxGeometry>
        </mxCell>
        <mxCell id="RRddbuZ1UMrs-aTlMUog-87" value="" style="shape=note2;boundedLbl=1;whiteSpace=wrap;html=1;size=25;verticalAlign=top;align=center;" parent="1" vertex="1">
          <mxGeometry x="60" y="1000" width="140" height="60" as="geometry" />
        </mxCell>
        <mxCell id="RRddbuZ1UMrs-aTlMUog-88" value="&#xa;Prints out the&#xa;test text intended&#xa;for physical device" style="resizeWidth=1;part=1;strokeColor=none;fillColor=none;align=left;spacingLeft=5;fontSize=11;" parent="RRddbuZ1UMrs-aTlMUog-87" vertex="1">
          <mxGeometry width="140" height="40" relative="1" as="geometry" />
        </mxCell>
        <mxCell id="RRddbuZ1UMrs-aTlMUog-90" value="" style="endArrow=none;dashed=1;html=1;rounded=0;entryX=0.823;entryY=0;entryDx=0;entryDy=0;entryPerimeter=0;" parent="1" source="RRddbuZ1UMrs-aTlMUog-89" target="RRddbuZ1UMrs-aTlMUog-88" edge="1">
          <mxGeometry width="50" height="50" relative="1" as="geometry">
            <mxPoint x="184.22" y="820" as="sourcePoint" />
            <mxPoint x="159.99999999999997" y="851.24" as="targetPoint" />
          </mxGeometry>
        </mxCell>
        <mxCell id="RRddbuZ1UMrs-aTlMUog-92" value="" style="endArrow=none;dashed=1;html=1;rounded=0;entryX=0.821;entryY=0;entryDx=0;entryDy=0;entryPerimeter=0;" parent="1" source="RRddbuZ1UMrs-aTlMUog-86" target="RRddbuZ1UMrs-aTlMUog-88" edge="1">
          <mxGeometry width="50" height="50" relative="1" as="geometry">
            <mxPoint x="210" y="860" as="sourcePoint" />
            <mxPoint x="186" y="891" as="targetPoint" />
          </mxGeometry>
        </mxCell>
        <mxCell id="RRddbuZ1UMrs-aTlMUog-98" value="&lt;font style=&quot;font-size: 11px;&quot;&gt;Device&amp;nbsp;&lt;span style=&quot;background-color: initial;&quot;&gt;initialization&lt;/span&gt;&lt;/font&gt;&lt;div style=&quot;font-size: 11px;&quot;&gt;&lt;font style=&quot;font-size: 11px;&quot;&gt;&lt;span style=&quot;background-color: initial;&quot;&gt;(&lt;/span&gt;&lt;span style=&quot;background-color: initial;&quot;&gt;discovery&lt;/span&gt;&lt;span style=&quot;background-color: initial;&quot;&gt;)&amp;nbsp;&lt;/span&gt;&lt;/font&gt;&lt;span style=&quot;background-color: initial;&quot;&gt;up to&lt;/span&gt;&lt;div style=&quot;&quot;&gt;&lt;font style=&quot;font-size: 11px;&quot;&gt;&lt;span style=&quot;background-color: initial;&quot;&gt;FEATURES_OK status&lt;/span&gt;&lt;/font&gt;&lt;/div&gt;&lt;/div&gt;" style="text;html=1;align=center;verticalAlign=middle;whiteSpace=wrap;rounded=0;fontColor=#999999;rotation=-90;" parent="1" vertex="1">
          <mxGeometry x="20" y="260" width="120" height="40" as="geometry" />
        </mxCell>
        <mxCell id="RRddbuZ1UMrs-aTlMUog-99" value="&lt;font color=&quot;#999999&quot; style=&quot;font-size: 11px;&quot;&gt;Device-specific initialization \ RX exchange&lt;/font&gt;" style="text;html=1;align=center;verticalAlign=middle;whiteSpace=wrap;rounded=0;rotation=-90;" parent="1" vertex="1">
          <mxGeometry x="-80" y="540" width="280" height="40" as="geometry" />
        </mxCell>
        <mxCell id="RRddbuZ1UMrs-aTlMUog-100" value="&lt;font color=&quot;#999999&quot; style=&quot;font-size: 11px;&quot;&gt;TX exchange&lt;/font&gt;" style="text;html=1;align=center;verticalAlign=middle;whiteSpace=wrap;rounded=0;rotation=-90;" parent="1" vertex="1">
          <mxGeometry y="890" width="120" height="40" as="geometry" />
        </mxCell>
        <mxCell id="0ZT-rWJsJx0gG27IaFTa-1" value="&lt;font style=&quot;font-size: 14px;&quot;&gt;&lt;b&gt;Sequence Diagram for &quot;Testing Rx exchange&quot; and &quot;Testing Tx exchange&quot; scenarios&lt;/b&gt;&lt;/font&gt;&lt;div style=&quot;line-height: 18px;&quot;&gt;&lt;font style=&quot;font-size: 13px;&quot;&gt;(only the key components presented)&lt;/font&gt;&lt;/div&gt;" style="shape=partialRectangle;whiteSpace=wrap;html=1;left=0;right=0;fillColor=none;strokeColor=#4D4D4D;" vertex="1" parent="1">
          <mxGeometry x="94" y="30" width="640" height="40" as="geometry" />
        </mxCell>
        <mxCell id="0ZT-rWJsJx0gG27IaFTa-2" value="&lt;div&gt;&lt;font style=&quot;font-size: 10px;&quot;&gt;&lt;span style=&quot;background-color: initial;&quot;&gt;©&amp;nbsp;&lt;/span&gt;Nataliya Korovkina&lt;span style=&quot;background-color: initial;&quot;&gt;&amp;nbsp;2024-2025 – CC BY 4.0&lt;/span&gt;&lt;/font&gt;&lt;/div&gt;&lt;div&gt;&lt;font style=&quot;font-size: 10px;&quot;&gt;docs.kernels-abreeze.dev&lt;/font&gt;&lt;/div&gt;" style="shape=partialRectangle;whiteSpace=wrap;html=1;left=0;right=0;fillColor=none;strokeColor=#4D4D4D;" vertex="1" parent="1">
          <mxGeometry x="560" y="1120" width="250" height="30" as="geometry" />
        </mxCell>
      </root>
    </mxGraphModel>
  </diagram>
</mxfile>
